<svg width="800" height="500" xmlns="http://www.w3.org/2000/svg">
  <rect width="100%" height="100%" fill="#f5f5f5"/>
  <rect x="10" y="10" width="780" height="480" stroke="#646cff" stroke-width="2" fill="none" rx="5"/>
  
  <!-- Browser UI Elements -->
  <rect x="20" y="20" width="760" height="40" fill="#333" rx="4"/>
  <circle cx="40" cy="40" r="6" fill="#ff5f57"/>
  <circle cx="60" cy="40" r="6" fill="#febc2e"/>
  <circle cx="80" cy="40" r="6" fill="#28c840"/>
  <rect x="100" y="30" width="500" height="20" fill="#444" rx="3"/>
  <rect x="640" y="30" width="120" height="20" fill="#444" rx="3"/>
  
  <!-- Content -->
  <rect x="20" y="70" width="760" height="410" fill="#fff"/>
  
  <!-- Website content simulation -->
  <rect x="40" y="90" width="200" height="60" fill="#646cff" rx="4"/>
  <text x="140" y="130" font-family="Arial" font-size="16" fill="white" text-anchor="middle">Company Logo</text>
  
  <rect x="260" y="100" width="80" height="30" fill="#eee" rx="15"/>
  <text x="300" y="120" font-family="Arial" font-size="14" fill="#333" text-anchor="middle">Home</text>
  
  <rect x="360" y="100" width="80" height="30" fill="#eee" rx="15"/>
  <text x="400" y="120" font-family="Arial" font-size="14" fill="#333" text-anchor="middle">About</text>
  
  <rect x="460" y="100" width="100" height="30" fill="#eee" rx="15"/>
  <text x="510" y="120" font-family="Arial" font-size="14" fill="#333" text-anchor="middle">Products</text>
  
  <rect x="580" y="100" width="80" height="30" fill="#eee" rx="15"/>
  <text x="620" y="120" font-family="Arial" font-size="14" fill="#333" text-anchor="middle">Contact</text>
  
  <rect x="680" y="100" width="80" height="30" fill="#646cff" rx="15"/>
  <text x="720" y="120" font-family="Arial" font-size="14" fill="white" text-anchor="middle">Login</text>
  
  <rect x="40" y="170" width="480" height="280" fill="#f1f1f1" rx="4"/>
  <text x="280" y="310" font-family="Arial" font-size="20" fill="#646cff" text-anchor="middle">Main Content Area</text>
  
  <rect x="540" y="170" width="220" height="280" fill="#f8f8f8" rx="4"/>
  <text x="650" y="310" font-family="Arial" font-size="16" fill="#646cff" text-anchor="middle">Sidebar</text>
  
  <!-- Demo text -->
  <text x="400" y="460" font-family="Arial" font-size="18" fill="#646cff" text-anchor="middle">Demo Mode: Simulated Screenshot</text>
</svg> 